<svg width="170" height="75" viewBox="0 0 170 75" fill="none" xmlns="http://www.w3.org/2000/svg">
<path d="M2.40645 60.3392C3.52611 59.4326 4.24096 58.1199 4.39384 56.6899C4.5467 55.2599 4.12503 53.8297 3.22158 52.7139M3.22158 52.7139C3.66892 53.2664 4.22108 53.725 4.84649 54.0637C5.47198 54.4023 6.15848 54.6142 6.86678 54.6875C7.57515 54.7607 8.29144 54.6937 8.97481 54.4904C9.65818 54.2871 10.2953 53.9514 10.8496 53.5025M3.22158 52.7139C13.0902 64.9016 33.7326 82.0413 41.4662 59.8697C45.6961 47.7429 59.078 28.7023 83.1738 42.5787C90.7775 46.9575 104.747 57.9805 99.7972 67.042C96.4382 73.1908 83.8895 77.535 86.2641 63.1709C88.5282 49.4749 159.5 52.7141 168 1.89113" stroke="#00BBC9" stroke-width="3" stroke-linecap="round" stroke-linejoin="round"/>
</svg>

